<?xml version="1.0" standalone="no"?>
<!DOCTYPE svg PUBLIC "-//W3C//DTD SVG 1.0//EN" "http://www.w3.org/TR/2001/REC-SVG-20010904/DTD/svg10.dtd">
<svg width="936" height="900" viewBox="0 0 936 900" xmlns="http://www.w3.org/2000/svg" xmlns:svg="http://www.w3.org/2000/svg" xmlns:xlink="http://www.w3.org/1999/xlink">
<title>Retro-looking abstract flower patterns in late 60's - early 70's style.</title>
<g transform="translate(2,600) scale(1,-1)">
<path transform="translate(12,298) scale(0.3,0.3)" fill="#f0c000" d="M0,553.973
C0,660.185,86.1025,746.288,192.315,746.288
C245.873,746.288,294.318,724.394,329.188,689.069
C315.448,715.548,307.685,745.627,307.685,777.519
C307.685,883.732,393.788,969.834,500,969.834
C606.212,969.834,692.315,883.732,692.315,777.519
C692.315,745.627,684.552,715.548,670.812,689.068
C705.682,724.394,754.127,746.288,807.685,746.288
C913.897,746.288,1000,660.185,1000,553.973
C1000,447.76,913.897,361.658,807.685,361.658
C797.051,361.658,786.619,362.521,776.454,364.181
C839.333,332.557,882.475,267.45,882.475,192.268
C882.475,86.0552,796.372,-0.04736,690.16,-0.04736
C593.765,-0.04736,513.935,70.8728,500,163.382
C486.065,70.8728,406.235,-0.04736,309.84,-0.04736
C203.628,-0.04736,117.525,86.0552,117.525,192.268
C117.525,267.45,160.667,332.557,223.546,364.181
C213.381,362.521,202.949,361.658,192.315,361.658
C86.1025,361.658,0,447.76,0,553.973Z
M386.768,454
C386.768,391.464,437.464,340.768,500,340.768
C562.536,340.768,613.232,391.464,613.232,454
C613.232,516.536,562.536,567.232,500,567.232
C437.464,567.232,386.768,516.536,386.768,454Z"/>
<path transform="translate(15,10) scale(0.275,0.275)" fill="#ff4080"  d="M989.074,603.956
C981.81,638.131,970.983,671.45,956.773,703.368
L500,500
L989.074,603.956Z
M904.508,793.893
C883.972,822.158,860.529,848.194,834.565,871.572
L500,500
L904.508,793.893Z
M750,933.013
C719.742,950.482,687.737,964.732,654.508,975.528
L500,500
L750,933.013Z
M552.264,997.261
C534.903,999.085,517.457,1000,500,1000
C482.543,1000,465.097,999.085,447.736,997.261
L500,500
L552.264,997.261Z
M345.492,975.528
C312.263,964.732,280.258,950.482,250,933.013
L500,500
L345.492,975.528Z
M165.435,871.572
C139.471,848.194,116.028,822.158,95.4917,793.893
L500,500
L165.435,871.572Z
M43.2273,703.368
C29.0166,671.45,18.1904,638.131,10.9263,603.956
L500,500
L43.2273,703.368Z
M0,500
C0,465.062,3.66211,430.219,10.9263,396.044
L500,500
H0Z
M43.2273,296.632
C57.438,264.714,74.9556,234.373,95.4917,206.107
L500,500
L43.2273,296.632Z
M165.435,128.428
C191.399,105.049,219.743,84.4565,250,66.9873
L500,500
L165.435,128.428Z
M345.492,24.4719
C378.72,13.6755,412.989,6.39111,447.736,2.73926
L500,500
L345.492,24.4719Z
M552.264,2.73926
C587.011,6.39111,621.28,13.6755,654.508,24.4719
L500,500
L552.264,2.73926Z
M750,66.9873
C780.257,84.4565,808.601,105.049,834.565,128.428
L500,500
L750,66.9873Z
M904.508,206.107
C925.044,234.373,942.562,264.714,956.773,296.632
L500,500
L904.508,206.107Z
M989.074,396.044
C996.338,430.219,1000,465.062,1000,500
L500,500
L989.074,396.044Z
M540,500
C540,522.091,522.091,540,500,540
C477.909,540,460,522.091,460,500
C460,477.909,477.909,460,500,460
C522.091,460,540,477.909,540,500Z"/>
<path transform="translate(635,312) scale(0.285,0.285)" fill="#00c040" d="M431.433,793.77
C434.232,804.216,435.65,814.984,435.65,825.799
C435.65,894.144,380.245,949.549,311.9,949.549
C243.555,949.549,188.15,894.144,188.15,825.799
C188.15,769.789,225.77,720.761,279.871,706.265
C351.591,687.048,411.392,594.026,392.83,561.875
C374.267,529.724,263.807,535.002,211.305,587.504
C188.097,610.712,156.621,623.75,123.8,623.75
C55.4548,623.75,0.0500488,568.345,0.0500488,500
C0.0500488,431.655,55.4548,376.25,123.8,376.25
C156.621,376.25,188.097,389.288,211.305,412.496
C263.807,464.998,374.267,470.276,392.83,438.125
C411.392,405.974,351.591,312.952,279.871,293.735
C225.77,279.239,188.15,230.211,188.15,174.201
C188.15,105.856,243.555,50.4514,311.9,50.4514
C380.245,50.4514,435.65,105.856,435.65,174.201
C435.65,185.016,434.232,195.784,431.433,206.23
C412.216,277.95,462.875,376.25,500,376.25
C537.125,376.25,587.784,277.95,568.567,206.23
C565.768,195.784,564.35,185.016,564.35,174.201
C564.35,105.856,619.755,50.4514,688.1,50.4514
C756.445,50.4514,811.85,105.856,811.85,174.201
C811.85,230.211,774.23,279.239,720.129,293.735
C648.409,312.952,588.608,405.974,607.17,438.125
C625.733,470.276,736.193,464.998,788.695,412.496
C811.903,389.288,843.379,376.25,876.2,376.25
C944.545,376.25,999.95,431.655,999.95,500
C999.95,568.345,944.545,623.75,876.2,623.75
C843.379,623.75,811.903,610.712,788.695,587.504
C736.193,535.002,625.733,529.724,607.17,561.875
C588.608,594.026,648.409,687.048,720.129,706.265
C774.23,720.761,811.85,769.789,811.85,825.799
C811.85,894.144,756.445,949.549,688.1,949.549
C619.755,949.549,564.35,894.144,564.35,825.799
C564.35,814.984,565.768,804.216,568.567,793.77
C587.784,722.05,537.125,623.75,500,623.75
C462.875,623.75,412.216,722.05,431.433,793.77Z"/>
<path transform="translate(308,9) scale(0.3,0.3)" fill="#f040c0" d="M607.48,707.32
C635.986,735.825,652,774.487,652,814.8
C652,898.747,583.947,966.8,500,966.8
C416.053,966.8,348,898.747,348,814.8
C348,774.487,364.014,735.825,392.52,707.32
C444.11,655.729,445.089,597.987,410.657,572.97
C376.225,547.954,321.611,566.728,288.488,631.736
C262.539,682.664,210.212,714.729,153.055,714.729
C69.1074,714.729,1.05469,646.677,1.05469,562.729
C1.05469,478.782,69.1074,410.729,153.055,410.729
C177.042,410.729,200.689,416.407,222.061,427.297
C287.069,460.419,342.288,443.507,355.439,403.03
C368.591,362.552,333.86,316.413,261.798,304.999
C187.951,293.303,133.576,229.638,133.576,154.871
C133.576,70.9236,201.629,2.87085,285.576,2.87085
C369.523,2.87085,437.576,70.9236,437.576,154.871
C437.576,162.833,436.95,170.784,435.705,178.649
C424.291,250.71,457.44,298,500,298
C542.56,298,575.709,250.71,564.295,178.649
C563.05,170.784,562.424,162.833,562.424,154.871
C562.424,70.9236,630.477,2.87085,714.424,2.87085
C798.371,2.87085,866.424,70.9236,866.424,154.871
C866.424,229.638,812.049,293.303,738.202,304.999
C666.14,316.413,631.409,362.552,644.561,403.03
C657.712,443.507,712.931,460.419,777.939,427.297
C799.311,416.407,822.958,410.729,846.945,410.729
C930.893,410.729,998.945,478.782,998.945,562.729
C998.945,646.677,930.893,714.729,846.945,714.729
C789.788,714.729,737.461,682.664,711.512,631.736
C678.389,566.728,623.775,547.954,589.343,572.97
C554.911,597.987,555.89,655.729,607.48,707.32Z"/>
<path transform="translate(327,302) scale(0.29,0.29)" fill="#0040c0" d="M0,500
C0,555.555,88.8889,577.778,177.778,577.778
C223.976,577.778,270.174,571.108,310.826,561.466
C272.271,577.561,230.975,599.319,193.6,626.474
C135.687,668.551,86.2456,722.286,86.2456,765.088
C86.2456,775.435,89.1347,785.143,95.4917,793.893
C106.083,808.471,122.179,814.715,141.549,814.715
C181.896,814.715,236.446,787.621,285.033,752.321
C322.408,725.166,355.863,692.615,383.085,660.92
C361.352,696.603,340.733,738.48,326.457,782.417
C313.83,821.278,305.669,861.591,305.669,895.476
C305.669,935.304,316.944,966.252,345.492,975.528
C350.494,977.153,355.457,977.929,360.369,977.929
C407.34,977.929,449.531,907.021,474.399,830.486
C488.675,786.549,496.608,740.552,500,698.91
C503.392,740.552,511.325,786.549,525.601,830.486
C550.469,907.021,592.659,977.929,639.631,977.929
C644.542,977.929,649.506,977.153,654.508,975.528
C683.056,966.252,694.331,935.304,694.331,895.476
C694.331,861.591,686.17,821.278,673.543,782.417
C659.267,738.479,638.648,696.603,616.916,660.92
C644.137,692.615,677.592,725.166,714.967,752.321
C763.554,787.621,818.104,814.715,858.451,814.715
C877.82,814.715,893.916,808.471,904.508,793.893
C910.865,785.143,913.754,775.435,913.754,765.088
C913.754,722.286,864.312,668.551,806.4,626.474
C769.025,599.32,727.73,577.561,689.175,561.467
C729.826,571.108,776.024,577.778,822.222,577.778
C911.111,577.778,1000,555.555,1000,500
C1000,444.444,911.111,422.222,822.222,422.222
C776.024,422.222,729.826,428.892,689.175,438.533
C727.73,422.439,769.025,400.68,806.4,373.526
C864.312,331.449,913.754,277.714,913.754,234.911
C913.754,224.565,910.865,214.857,904.508,206.107
C893.917,191.529,877.82,185.285,858.451,185.285
C818.104,185.285,763.554,212.379,714.967,247.679
C677.592,274.834,644.137,307.385,616.916,339.08
C638.648,303.397,659.267,261.52,673.543,217.583
C686.17,178.722,694.331,138.409,694.331,104.524
C694.331,64.6961,683.056,33.7477,654.508,24.4719
C649.506,22.8468,644.542,22.0715,639.631,22.0715
C592.659,22.0715,550.469,92.9786,525.601,169.514
C511.325,213.451,503.392,259.448,500,301.09
C496.608,259.448,488.675,213.451,474.399,169.514
C449.531,92.9786,407.341,22.0715,360.369,22.0715
C355.457,22.0715,350.494,22.8468,345.492,24.4719
C316.944,33.7477,305.669,64.6961,305.669,104.524
C305.669,138.409,313.83,178.722,326.457,217.583
C340.733,261.52,361.352,303.397,383.084,339.08
C355.863,307.385,322.408,274.834,285.033,247.679
C236.446,212.379,181.896,185.285,141.549,185.285
C122.179,185.285,106.083,191.529,95.4917,206.107
C89.1347,214.857,86.2456,224.565,86.2456,234.911
C86.2456,277.714,135.687,331.449,193.6,373.526
C230.975,400.681,272.271,422.439,310.826,438.534
C270.174,428.892,223.976,422.222,177.778,422.222
C88.8889,422.222,0,444.444,0,500Z
M433.333,500
C433.333,463.181,463.181,433.333,500,433.333
C536.819,433.333,566.667,463.181,566.667,500
C566.667,536.819,536.819,566.667,500,566.667
C463.181,566.667,433.333,536.819,433.333,500Z"/>
<path transform="translate(619,10) scale(0.3,0.3)" fill="#8040c0" d="M0.226318,412.26
C0.226318,507.433,77.3789,584.585,172.551,584.585
C177.169,584.585,181.744,584.403,186.27,584.047
C128.141,611.738,87.9658,671.032,87.9658,739.709
C87.9658,834.881,165.119,912.034,260.291,912.034
C328.968,912.034,388.262,871.859,415.953,813.729
C415.597,818.256,415.415,822.831,415.415,827.449
C415.415,922.621,492.567,999.774,587.74,999.774
C682.912,999.774,760.064,922.621,760.064,827.449
C760.064,791.12,748.823,757.417,729.628,729.628
C757.417,748.823,791.12,760.064,827.449,760.064
C922.621,760.064,999.774,682.912,999.774,587.74
C999.774,492.567,922.621,415.415,827.449,415.415
C822.831,415.415,818.256,415.597,813.729,415.953
C871.859,388.262,912.034,328.968,912.034,260.291
C912.034,165.119,834.881,87.9658,739.709,87.9658
C671.032,87.9658,611.738,128.141,584.047,186.27
C584.403,181.744,584.585,177.169,584.585,172.551
C584.585,77.3789,507.433,0.226318,412.26,0.226318
C317.088,0.226318,239.936,77.3789,239.936,172.551
C239.936,208.88,251.178,242.583,270.372,270.372
C242.583,251.178,208.88,239.936,172.551,239.936
C77.3789,239.936,0.226318,317.088,0.226318,412.26Z
M387,500
C387,437.592,437.592,387,500,387
C562.408,387,613,437.592,613,500
C613,562.408,562.408,613,500,613
C437.592,613,387,562.408,387,500Z"/>
<path transform="translate(308,-289) scale(0.3,0.3)" fill="#ff0040" d="M5.62738,568.088
C5.62738,578.085,7.24137,588.401,10.6816,598.989
C27.7241,651.441,77.0576,672.088,134.892,672.088
C166.98,672.088,201.684,665.732,234.943,654.926
C313.153,629.514,375.426,591.511,417.394,553.697
C394.399,605.296,377.5,676.265,377.5,758.5
C377.5,856.5,414.25,954.5,500,954.5
C585.75,954.5,622.5,856.5,622.5,758.5
C622.5,676.265,605.601,605.296,582.606,553.697
C624.574,591.511,686.847,629.514,765.057,654.926
C798.315,665.732,833.02,672.088,865.108,672.088
C922.942,672.088,972.274,651.44,989.318,598.989
C992.759,588.4,994.373,578.086,994.373,568.088
C994.373,501.085,921.867,448.269,840.766,421.917
C780.812,402.437,724.086,394.447,675.564,394.447
C660.788,394.447,646.773,395.188,633.66,396.571
C682.592,368.342,737.978,320.861,786.314,254.332
C819.892,208.116,843.367,154.56,843.367,107.942
C843.367,74.5863,831.349,44.7828,802.415,23.761
C784.36,10.6433,765.088,4.84666,745.441,4.84666
C689.597,4.84666,630.716,51.6753,588.105,110.324
C539.769,176.854,511.726,244.202,500,299.462
C488.274,244.202,460.231,176.854,411.895,110.324
C369.284,51.6753,310.403,4.84666,254.559,4.84666
C234.912,4.84666,215.64,10.6432,197.585,23.761
C168.651,44.7828,156.633,74.5863,156.633,107.942
C156.633,154.56,180.108,208.116,213.686,254.332
C262.022,320.861,317.408,368.342,366.34,396.571
C353.227,395.188,339.212,394.447,324.436,394.447
C275.914,394.447,219.188,402.437,159.234,421.917
C78.1311,448.269,5.62738,501.084,5.62738,568.088Z
M451,440
C451,412.938,472.938,391,500,391
C527.062,391,549,412.938,549,440
C549,467.062,527.062,489,500,489
C472.938,489,451,467.062,451,440Z"/>
<path transform="translate(630,-291) scale(0.29,0.29)" fill="#eae200" d="M3.33403,564.614
C3.33403,578.724,5.66108,593.537,10.6816,608.989
C33.1109,678.02,91.5134,705.105,156.304,705.105
C184.896,705.105,214.733,699.83,243.271,690.557
C294.057,674.055,337.639,650.754,373.022,624.77
C359.244,666.45,350.55,715.1,350.55,768.5
C350.55,866.5,395.385,964.5,500,964.5
C604.615,964.5,649.45,866.5,649.45,768.5
C649.45,715.1,640.756,666.45,626.978,624.77
C662.361,650.754,705.943,674.055,756.729,690.557
C785.267,699.83,815.104,705.105,843.697,705.105
C908.487,705.105,966.888,678.019,989.318,608.989
C994.339,593.536,996.667,578.724,996.667,564.614
C996.667,487.871,927.821,431.867,849.094,406.287
C799.118,390.049,750.916,383.238,707.561,383.238
L705.455,383.244
C741.101,357.622,776.729,323.374,808.117,280.173
C838.48,238.382,858.765,189.268,858.765,143.158
C858.765,101.79,842.438,62.8396,802.415,33.761
C776.656,15.0461,750.041,6.93001,723.854,6.93001
C663.998,6.93001,606.373,49.3304,566.302,104.484
C534.914,147.686,513.352,192.154,500,233.972
C486.648,192.154,465.086,147.686,433.698,104.484
C393.627,49.3304,336.002,6.93001,276.146,6.93001
C249.959,6.93001,223.344,15.0461,197.585,33.761
C157.562,62.8396,141.235,101.79,141.235,143.158
C141.235,189.268,161.52,238.382,191.883,280.173
C223.271,323.374,258.899,357.622,294.545,383.244
L292.439,383.238
C249.084,383.238,200.882,390.049,150.906,406.287
C72.1773,431.867,3.33403,487.869,3.33403,564.614Z
M424.05,450
C424.05,408.054,458.054,374.05,500,374.05
C541.946,374.05,575.95,408.054,575.95,450
C575.95,491.946,541.946,525.95,500,525.95
C458.054,525.95,424.05,491.946,424.05,450Z"/>
<path transform="translate(11,-292) scale(0.29,0.29)" fill="#00c0c0" d="M1.84716,608.881
C1.84716,616.574,2.88179,624.491,5.05957,632.619
C19.3304,685.879,71.6047,706.786,133.229,706.786
C162.277,706.786,193.403,702.141,223.605,694.048
C277.663,679.563,324.727,659.223,363.156,636.844
C340.777,675.273,320.437,722.337,305.952,776.395
C297.859,806.597,293.214,837.723,293.214,866.771
C293.214,928.395,314.122,980.669,367.381,994.94
C375.509,997.118,383.428,998.153,391.12,998.153
C457.593,998.153,507.213,920.885,529.854,836.389
C544.141,783.068,550.093,732.792,550.093,688.756
L550.089,686.934
C572.18,725.529,602.769,766.676,642.341,806.248
C689.214,853.121,747.429,888.653,797.931,888.653
C821.785,888.653,843.918,880.726,862.322,862.322
C880.726,843.918,888.653,821.785,888.653,797.931
C888.653,747.429,853.121,689.214,806.248,642.341
C766.675,602.768,725.528,572.18,686.934,550.089
L688.754,550.092
C732.791,550.092,783.068,544.14,836.389,529.853
C920.885,507.213,998.153,457.593,998.153,391.12
C998.153,383.428,997.118,375.509,994.94,367.381
C980.669,314.122,928.395,293.214,866.771,293.214
C837.723,293.214,806.597,297.859,776.395,305.952
C722.337,320.437,675.273,340.777,636.844,363.156
C659.223,324.727,679.563,277.663,694.048,223.605
C702.141,193.403,706.786,162.277,706.786,133.229
C706.786,71.6047,685.879,19.3304,632.619,5.05957
C624.491,2.88179,616.574,1.84716,608.882,1.84716
C542.408,1.84716,492.787,79.1145,470.146,163.611
C455.859,216.931,449.907,267.208,449.907,311.244
L449.911,313.066
C427.82,274.471,397.231,233.324,357.659,193.752
C310.786,146.879,252.571,111.347,202.069,111.347
C178.215,111.347,156.082,119.274,137.678,137.678
C119.274,156.082,111.347,178.215,111.347,202.069
C111.347,252.571,146.879,310.786,193.752,357.659
C233.325,397.232,274.472,427.821,313.066,449.911
L311.246,449.908
C267.209,449.908,216.932,455.86,163.611,470.147
C79.1146,492.788,1.84716,542.408,1.84716,608.881Z
M434.12,500
C434.12,463.615,463.615,434.12,500,434.12
C536.385,434.12,565.88,463.615,565.88,500
C565.88,536.385,536.385,565.88,500,565.88
C463.615,565.88,434.12,536.385,434.12,500Z"/>
</g>
</svg>
